<svg width="50" height="50" viewBox="0 0 50 50" fill="none" xmlns="http://www.w3.org/2000/svg">
<g id="Wireframes - flow_user" clip-path="url(#clip0_1_77)">
<g id="flow_user">
<g id="flow user">
<path id="container" d="M25 50C38.8071 50 50 38.8071 50 25C50 11.1929 38.8071 0 25 0C11.1929 0 0 11.1929 0 25C0 38.8071 11.1929 50 25 50Z" fill="white"/>
<path id="user" fill-rule="evenodd" clip-rule="evenodd" d="M40.6509 39.375C36.7669 43.6013 31.1931 46.25 25.0007 46.25C18.8084 46.25 13.2345 43.6013 9.35059 39.375C13.2346 35.1487 18.8084 32.5 25.0007 32.5C31.1931 32.5 36.7669 35.1487 40.6509 39.375ZM25.0007 27.5C29.1429 27.5 32.5007 24.1421 32.5007 20C32.5007 15.8579 29.1429 12.5 25.0007 12.5C20.8586 12.5 17.5007 15.8579 17.5007 20C17.5007 24.1421 20.8586 27.5 25.0007 27.5Z" fill="#DD4D1E"/>
</g>
</g>
</g>
<defs>
<clipPath id="clip0_1_77">
<rect width="50" height="50" fill="white"/>
</clipPath>
</defs>
</svg>
